<?xml version="1.0" encoding="utf-8"?>
<!-- Generator: Adobe Illustrator 25.0.0, SVG Export Plug-In . SVG Version: 6.00 Build 0)  -->
<svg version="1.1" id="Layer_1" xmlns="http://www.w3.org/2000/svg" xmlns:xlink="http://www.w3.org/1999/xlink" x="0px" y="0px"
	 viewBox="0 0 1188.2 168.8" style="enable-background:new 0 0 1188.2 168.8;" xml:space="preserve">
<style type="text/css">
	.st0{fill:#FFFFFF;}
</style>
<g id="Layer_2_1_">
	<g id="Capa_1">
		<path d="M1081.5,74.6c-0.6-1.1-2.4-2.9-2.9-3.6c-1.9-2.7-5.4-8.2-8.4-12.2c-1.9-2.6-4.7-5-4.7-6.1c0.1-1.3,4.4-4.2,4.4-8
			s-2.7-7.6-4.5-11.3c-1.3-2.7-2.2-5.6-2.7-8.5c0-1.3,0-3.6,2.4-3.1c3.7,0.7,5.4-4.3,6.5-8.9c0.5-2.3,0.2-8.6-3.3-10.9
			c-2.7-1.7-7.6-2.6-12.2,1.8c-2.8,2.7-2.9,8.3-3.9,12.8c-0.8,3.9-4.5,13.5-7.1,21.9c-1.3,4.4-6,16-6.7,17.7c-1.8,4.7-3,14.7-5,21.3
			c-0.6,0.9-1.2,1.7-2,2.5c-1.7,1.4-3,5.6,0.1,6.4c6.2,1.7,5.7-5.9,5.8-6.4c1.6-4.6,4.1-9.7,5.7-15.2c0.5-1.8,1-3.5,1.7-5.3
			c0.2-0.3,2-4.2,2.8-5.2c0,0,0.7,8-1.7,13.4c-0.3,0.7-2.3,5.9-2.7,8.9c-0.9,8.3,1.5,13.7,4.7,21.1c2.3,5.4,5.3,14.5,6.4,17.3
			l-4.5,2.7c-7.3,4.5-15.8,18.6-22.4,23.5c-0.8,0.6-2.7,1.1-3.6,2.4c-2,2.7,1.6,5,2.1,5.8c0.9,1.4,5.8,8.6,6.7,9.5
			c2.7,2.8,3.5-2.2,2.3-4.4c-2.1-3.7-2.3-8.5-0.9-9.9s7-4.7,10-7.2c0.9-0.8,6.6-4.4,6.6-4.4c-0.8,4.5-1,9-0.5,13.5
			c0.5,4.2,0.7,9.9,0.7,10.9c0,2.1-0.5,4.2-1.4,6.1c-1.2,2.8,0.4,5,2.2,5h18.7c1.1-1.3,0.1-2.4-5.4-3.9c-2.1-0.6-5.8-2.1-6.3-6.1
			c-0.4-3.2,0.4-10.9,1.4-15.3c0.7-3,3.7-18.9,3.7-18.9s4.1-2.1,5.3-4s1.6-4.6,1.3-9.6c-0.3-3.8-0.3-14.8-3.3-27.1
			c-4.6-19.2-4.2-21.6-4.2-21.6c1.1,1.4,2.3,2.6,3.6,3.8c3.5,2.8,7.9,6.7,9.3,8.5c0.5,0.9,0.7,1.9,0.4,2.9c-0.1,2.3,1.7,4.9,3.6,4
			C1082.7,79.9,1082.4,76.2,1081.5,74.6z"/>
		<path d="M1183.4,156.4c-1.5,0.1-11,0.7-12.3-0.7c-5.1-5.5-10.3-25.4-13.2-31.5c-1.6-3.4-9.8-31.3-15.5-43.5l0.1-7.6
			c0,0,2.4,1,3,1.3c2,1.3,8.9,5.4,11.8,8.8c1,1.3,1.9,2.6,2.7,4c1.3,2.1,4.8,2,7.2,0.5c1.2-0.8,2.1-4.6-1-6.7
			c-0.9-0.6-4.1-1.8-5.8-3.3c-1.2-1-11.5-10.2-12.8-11.7c-0.8-0.9-4.6-4.5-4.6-4.5c-0.2-2.5-1.4-17.6-3.1-24
			c-0.8-3.4-1.7-5.6-1.7-7.3c0-1.3-0.3-7.3,2.6-6.7c4.7,0.9,7.3-8.7,6.7-14.4C1147,4.2,1144,0,1137.3,0c-2.6,0-7.5,2.6-8.5,6.9
			c-1.2,5.4,0,7.4,0,10.2c0,0.8,0.1,2.3,0,3.1s-0.8,5.5-1.8,6.7c-1.5,1.7-5.4,4-8.9,9.7c-2.7,4.5-5.2,15-7,21.2
			c-2.9,9.6-4.4,24.4-6.6,28.1c-1.6,2.4-2.3,5.2-2.2,8.1c0.5,5.5,6.5,4,7.7,1.7s1.1-6,1.3-7.7c0.4-4.6,8-25.2,8-25.2
			s-0.5,13.7-0.7,16c-1.1,3.8-2,7.7-2.7,11.6c-0.5,3.1-0.6,5.8-1,10.8c-0.6,7.4-1.7,14.7-3.3,22c-6.1,6.4-9.4,18-15.4,25.7
			c-1,1.3-6.2,5-2.6,9.3c2.2,2.3,4.5,4.5,7,6.5c0.6,0.5,3.7,3.5,5.8,3.8c1.5,0.2,4.3,0.2,4.5-1.4c0.1-0.9-3-2.3-3.3-2.8
			c-1.7-2.3-2.8-4.9-3.2-7.7c0-0.8,0.2-1.6,0.6-2.3c1.1-2.3,13.4-19.1,16.9-25.3c3.7-6.4,8-21.2,10.5-27.4
			c2,6.2,12.5,24.4,17.2,33.3c2.1,6.7,5.6,12.7,11.9,24c1.1,2,1.3,6.6,3,7.5c1,0.5,2.5,0.2,5.3-1.1c8-4,18.1-4.6,18.1-6.5
			C1188.2,157.2,1184.8,156.3,1183.4,156.4z"/>
		<path d="M920.3,103.3L920.3,103.3C920.3,103.2,920.3,103.2,920.3,103.3z"/>
		<path d="M999.3,168.6c0.1-0.3,0.8-0.7,0.3-1.6c-1.7-2.9-14.5-3.8-15.4-7.8c-0.2-0.8,1.9-14.5,2.3-17.1c0.5-3.7,2.5-18.9,3.7-25.3
			c2.9-15.1,1-31.9,1.5-32.1l4.9,6.9l10-6.8c2.5,0.9,5.2,0.1,6.9-1.9c0.8-0.9,0.6-3.1,0.7-3.4l11.8-10l-17-23.2
			c0,0-14.9,13.8-16.2,13.5c-0.2,0-0.3-5.3-0.2-9.5c0.1-3.8,0-10-1.3-13c-1.1-2.6-2.2-5.9-1.8-7.1c0.1-0.2,0.8-0.5,0.7-1.5
			c-0.1-0.9-0.2-1.7-0.5-2.6c-0.2-2.6,0-3.3,2.3-2.9c4.9,0.8,7.1-10.6,7.2-11.1s0.1-5.6-2-7.8c-1-1.1-3.2-4.5-9.8-3.3
			c-4.6,0.8-8,4.8-8.1,9.5c-0.2,4,2,6.1,1.8,11c0,0.4-0.1,0.9-0.2,1.3c-1.6,1.9-7.4,6-9.8,9.3c-2.2,3-4.6,9.8-5.4,11.5
			s-2.4,4.8-3.1,6.5c-1.2,3-2.2,6.1-3,9.2c-2.4,10-1,22.8-1.2,24.1c-0.1,0.4-0.4,0.8-0.7,1.1c-0.2,0.3-0.8,0.6-1.1,0.9
			c-0.4,0.4-1.7,1.4-1.5,2.7c0.3,2.3,1.8,5.6,5.1,4.7c1.7-0.5,2.7-2.6,2.9-2.9s1.2-1.9,1.3-2.2c0.2-0.7,0.4-1.5,0.5-2.2
			c0-0.5,0-3.5,0-4c0.1-0.8,2.3-14.8,3.6-17.4c1.3-2.9,2.5-5.9,3.5-9c0,0,0,9.3,0,10.2c-0.1,1.4-0.8,4.2-0.9,5.6
			c0,0.4,0.1,1.3,0,1.8c-0.2,1-3.4,6.4-3.2,12.3c0.2,4.9,2.5,7.7,2,9.9c-0.4,1.8-4.1,17-4.4,17.8c-0.3,0.6-0.7,1.1-1.1,1.6
			c-1.3,1.7-3.9,5.1-5.2,6.8c-2.3,2.9-9.2,13.9-9.2,13.9s-3.3-11.4-4.7-15.4c-0.8-2.4-10.5-26.8-11.2-29.1
			c-0.4-1.2-4.1-17.5-2.9-18.2c0.7-0.5,10.6,6,12.5,8c0.4,0.4,2.8,3.2,3.1,3.8c0.6,1.2,1.8,1.8,3.1,1.6c1-0.1,2.1-0.2,3.1-0.4
			c0.9-0.4,2.1-2.6,1.1-4.9c-0.4-0.8-0.9-1.4-1.5-2c-0.9-0.7-10.4-6.4-11.1-6.9c-1.5-1-9.5-10.1-9.5-10.5c-0.5-5.4,2.1-7.3,1.4-12
			c-0.7-5.1-4.1-9-5.2-10.6c-4.8-7.1-3.7-14.2-2.5-14.2c4,0,6.5-1.5,8-7.5c0.6-2.5,1.6-6.5-0.4-10.5c-1.3-2.5-6.4-4.6-10.6-4.2
			c-4.7,0.5-6.5,4.3-7.2,5.7c-3.9,8.4-1.4,13.4-4.6,21.9c-1.3,3.4-6.8,11.3-4.6,15.4l-0.4,1.3c-2.4-5.6-4.5-11.3-6.3-17.1
			c-0.2-0.6,0.6-1.4,0.6-2.2c0-0.9-0.1-1.8-0.3-2.7c0.1-0.2,0.2-1.8,1.5-1.5c5,0.9,6.5-3.8,7.2-6.7c1.2-5,0.9-10.3-0.9-11.8
			c-3.9-3.5-8.7-3.5-10.2-3.1c-5.2,1.5-7.3,5.5-7.1,9.3c0.3,6.8,2.8,9,0.9,11.8c-0.7,0.9-12.5,7.4-14.7,12.6c-4,9.6-6.7,19.7-8.1,30
			c-0.1,0.7-4.6-2.6-5.2-3.1c-0.8-0.7-0.2-9.3-1.6-17.7c-0.7-3.9-3.8-12.4-4.2-13.9c-0.3-1.2-0.1-5.5,1.1-5.2
			c4,0.8,7.7-7.8,7.8-11.6c0.1-4.6-0.7-8.4-2.5-9.8c-3.2-2.6-7.6-3-9.1-2.5c-4.4,1.4-7,4-7.3,6.7c-0.7,4.8,0.8,8,0.9,9.8
			c0.1,1,0.1,2.1,0,3.1c-0.2,0.9-1,6.4-4.2,10c-5.6,6.1-7.6,15.8-7.6,15.8c-1.6-4-3.4-7.8-5.5-11.6c-0.8-1.4-1.5-2.9-2-4.4
			c-0.9-2.8-1.4-5.6-0.4-5.5c6.4,0.6,9.7-12.2,9.4-14.6c-0.5-4.3-4.1-8.9-9-8.8c-7.5,0-8.6,7-8.8,9.1c-0.2,2.6-0.2,8.6-0.3,10
			c-0.1,1.3-1,4.4-1.3,5.7c-0.3,1.5-3.3,3.5-5.2,10.3c-1.1-1.2-2-2.6-2.9-4c-0.5-1.8,0.7-5.6,1.4-8.1c0.8,0.1,1.5,0.2,2.3,0.2
			c1.9,0,4.6-3.3,5-10.4c0.2-4.7-1.1-7.8-3.8-10.5c-1.3-1.3-4.7-2.7-10.6-2.7H0v167.9h846.6c2.5,0,0.8-3-0.9-3.6
			c-2.2-0.8-4.3-1.9-6.2-3.5c-1-0.9-5-21.2-5-21.2l4.8-7.6l6.5,15.1c-1.2,1.1-2,2.5-2.5,4c-0.6,3.3,4.7,10.8,5.2,11.9
			c1.2,2.3,2.8,4.9,4.5,4.9h2.9c3.5,0,15.6-3.8,16.4-4.2c2.8-1.6,4-2.5,3.2-4c-0.6-1.1-3.9-1-4.2-1.1c-1.5-0.4-7.7-0.2-10-1.8
			c-1.5-1.1-2.1-2.6-3.2-5.6c0,0,10-12.4,12.1-12c1.6,0.2,10.4,19.6,10.5,19.9c0.3,0.9-1.2,5-0.4,8c0.2,0.6,1.7,0.9,1.9,0.9h22.4
			c0.4-0.1,3.3-0.9,1.5-2.7c-0.5-0.5-4.6-1-5-1.2s-3-0.6-2.9-1c2.3-0.7,4.5-1.5,6.6-2.4c0.6-0.4,1.9-0.9,2.2-1.6
			c0.6-0.7,0.7-1.7,0.3-2.6c-0.5-1-3.6-0.6-4.1-0.6c-1,0.1-8.4,0.8-8.5,0.3c-0.6-7.1,12.3-27,13.3-28.4c3.7-5.2,12.1-25.2,12.1-25.2
			c4,7.7,8.6,15.1,13.6,22.2c0.7,0.9,8.2,15.9,8.2,17.3c0,0.3-3,4.2-4.5,4.8c-1.4,0.6-4.3,1.9-4.8,3c-0.4,1-0.4,2.1,0,3.1
			c1.1,2.1,6.7,10,7.2,10.7c0.2,0.3,1.8,2.8,3.2,3.6c2.4,1.3,5.9,0.6,5.9,0.6c0.3-0.7,0.1-1.6-0.4-2.1c-1-1-1.8-2.1-2.5-3.3
			c-1-2.1-1.6-4.4-1.6-6.7c0.1-1.5,1.7-4.2,2.1-4.2c0,0,3.1,5.9,3.9,9.2c0.2,1.3,0.6,2.5,1.3,3.6c0.9,1.4,3.2,1.2,4.2,0.7
			c1.8-1,9.3-3.9,11-4.5c1.3-0.5,5.2-2.8,4.6-4.2c-1-2.8-9.5-0.6-14.3-2c-2.1-0.6-3.6-9.2-3.6-9.2c0.9-1.4,8.5-9.4,9.9-10.5
			c4.6-3.9,8.7-8.4,12.2-13.3c0.1-0.2,0.2-0.7,0.4-0.7s0,0.5,0,0.7c-0.1,0.8-1.1,15.1-1.2,24c0,3.3,1.2,10.8,0.1,15.4
			c-0.1,0.5-0.7,2.3-1,3.4c-0.3,1.4,0.3,2.9,1.4,3.9L999.3,168.6z M805.1,156c-0.2-0.5,3-16.9,3-16.9s4.7,12,5,13
			c0,0-1.2,2.8-1.7,4.3c-0.7,1.9,3,5.9,3,5.9S807.5,161.2,805.1,156z M819.7,143.1c0,0-3.7-14.7-3.7-15.2l1.8-2.2l5.5,12.3
			L819.7,143.1z M826,161.1c-1.4-1-2.5-5.9-2.5-5.9l3.2-5.8l3.2,11.1C829.9,160.5,826.9,161.9,826,161.1L826,161.1z M853.8,139.8
			c0,0-6-13.8-6.1-16.7c0-0.9,4.2-8.3,6.2-8c0.9,0.1,8.9,12.4,8.8,14.1S853.8,139.9,853.8,139.8L853.8,139.8z M876.7,106.7
			c-1.1,3.9-2.7,8.5-3.7,8.5c0,0-2.7-5.6-5.5-13.3c-1.5-4.2-4.1-9.7-4.1-13.4c0.1-6.1-0.9-14.2-0.2-14.6c0.5-0.3,4.3,1.8,4.8,2.5
			c0,0,0.9,10.5,0.8,11c-0.9,1.1-1.4,2.4-1.5,3.8c-0.1,2.5,1.6,6.1,5.1,6c4.1-0.1,4.8-4,4.8-3.7C877.1,93.5,877.9,102.5,876.7,106.7
			L876.7,106.7z M883.3,140.2l-3.3-8.4c0.2-1,4-4.2,4.2-4.1L883.3,140.2z M904.4,90.3c-2.3,6.5-5.2,28.2-5.2,28.2
			c1.7-10.8-0.6-25.7-0.5-28.9c0.2-6.3,2-26.9,3.6-29.7c0.1-0.2,7.4,12.5,7.5,13.2C910.1,77.4,907,83,904.4,90.3L904.4,90.3z"/>
		<path class="st0" d="M182.1,26.3c1.2-2,4-10.3,6.7-10.3c2.3,0,10.2,24.4,19.9,50.4c10.7,28.7,21.6,58.7,21.6,58.7
			c2.5,7.8,5.6,16.3,8.8,18.7c6.2,4.7,10.4,1.5,10.4,6.4c0,2.7-4.2,2.9-6.2,2.9h-52.3c-3.5,0-3.3-1.4-3.4-2.6
			c-0.1-4.7,12.4-1.1,14.6-14.8c0.4-2.5-3.7-26.1-10.4-27c-4.5-0.7-10.7-0.8-24.4-0.8c-10.4,0-17.4-0.2-20.1,0.2
			c-6.5,1-14.5,15.6-15.5,26.4c-1.3,14.5,20.1,8.2,20.1,15.7c0,0.8-0.4,2.9-2.1,2.9h-42.9c-3.3,0-4.1-0.9-4.1-2.5
			c0-4.7,10-4.3,14.9-13.5L182.1,26.3z M158.6,82.3c-1.8,3.5-6.7,11-6.7,13.3c0,3.5,11.1,2.4,15.8,2.4c13.1,0,22,0.4,22.9-1.5
			c0.9-1.8-4.4-12.7-6.2-17.5l-5.9-15.5c-1.4-3.7-3.1-6.3-4.2-6.3c-2.6,0-2.7,2-4.5,5.3L158.6,82.3z"/>
		<path class="st0" d="M287.2,129.4c-0.5,18.9,17.8,12.9,17.5,20.3c-0.1,2.6-4,3.2-5,3.2h-52c-4,0-2.8-0.2-3.2-2.8
			c-0.7-5.2,2.2-1.4,7.8-6.3c2.3-2,5.5-5.5,6.1-10.5c2-15.2,7.2-83,7.2-83c0.4-3.2,2.4-15.7-0.6-19.8c-6.8-9.6-16.4-1.9-15.6-9.7
			c0.3-2.5,5.8-3.6,9.1-3.6c4.4,0,10.9,0.2,26.1,0.2c6.1,0,14.9-0.4,20-0.4c2.6,0,7.2,0.3,7.2,2.4c0,6.2-14.6,2.6-16.2,16.5
			C293.3,59.4,287.4,125,287.2,129.4z"/>
		<path class="st0" d="M388.5,75.6c18.8-3.4,14.6-17.7,20.4-17.7c2.3,0,2.7,1.8,2.1,5.4c-1.2,7.2-2.6,18.1-3.3,36.7
			c-0.1,1.9-1.4,4.1-3.5,4c-4.8-0.4,0.2-19.8-20.8-19.3c0,0-8.3-0.6-14.8,2.2c-3.5,1.8-3.1,13.1-3.8,23.9
			c-0.5,8.1-1.5,16.5-1.5,18.2c-0.4,12.4,1.8,14,13.6,13.8c42-0.6,46.4-26,50.6-25.7c0,0,3.8-1,2.5,5.3
			c-3.5,18.4-12.9,28.6-24.4,30.7h-83.5c-2.7,0-4.6-0.5-4.6-1.6c0-9.2,14.1-1.3,16.6-20.8l7.4-73c0.5-10.3,0.1-19,0.1-22.1
			c0-14.3-16.4-8.1-16.6-14.6c-0.1-3.4,4.6-3.9,5.1-3.9c12.2,0,24.3,0.2,36.5,0.2c43.2,0,53.9,0,58.1,0c2.3,0,4.9,0.3,4.8,2.2
			c-0.1,7.2-1.8,14.6-1.9,19.1c-0.1,7.5,0.5,11-2.9,11.7c-5.4,1.2-1.9-11.4-7.1-16.7c-5-6.2-22-6.5-30.2-6.4c-5.1,0-10.4-1.3-13.9,2
			c-1.9,1.9-2.2,9.6-3.1,19.5c-0.6,6.4-1.1,14.8-2,21.1c-0.7,5.2,0.1,6.5,5.4,6.5L388.5,75.6z"/>
		<path class="st0" d="M604.1,75.6c18.8-3.4,14.6-17.7,20.4-17.7c2.3,0,2.7,1.8,2.1,5.4c-1.2,7.2-2.6,18.1-3.3,36.7
			c-0.1,1.9-1.5,4.1-3.5,4c-4.8-0.4,0.2-19.8-20.8-19.4c0,0-8.3-0.6-14.8,2.2c-3.5,1.8-3.1,13.1-3.8,23.9
			c-0.5,8.1-1.5,16.5-1.5,18.2c-0.4,12.4,1.8,14,13.6,13.8c42-0.6,46.3-26,50.6-25.7c0,0,3.8-1,2.5,5.3c-3.5,18.4-13,28.6-24.4,30.7
			h-83.5c-2.7,0-4.6-0.5-4.6-1.6c0-9.2,14.1-1.3,16.6-20.8l7.4-73c0.5-10.3,0.1-19,0.1-22.1c0-14.3-16.4-8.1-16.6-14.6
			c-0.1-3.3,4.6-3.8,5.1-3.8c12.2,0,24.3,0.2,36.5,0.2c43.2,0,53.8,0,58.1,0c2.3,0,4.8,0.3,4.8,2.2c-0.1,7.2-1.8,14.6-1.9,19.1
			c-0.1,7.5,0.5,11-2.9,11.7c-5.4,1.2-1.9-11.4-7.1-16.7c-5-6.2-22-6.5-30.2-6.4c-5.1,0-10.4-1.3-13.9,2c-1.9,1.9-2.2,9.6-3.1,19.5
			c-0.6,6.4-1.1,14.8-2,21.1c-0.7,5.2,0.1,6.5,5.4,6.5L604.1,75.6z"/>
		<path class="st0" d="M532.9,54.5c0,1.8-2,3.7-4,3.8c-4.4,0.2-2.7-8.4-10.5-19.1c-5.6-7.7-17-15.1-26.7-15.1
			c-12.1-0.1-24.2,4.2-25.3,18.1s7.2,19,38.5,29.4c13,4.3,26.8,15.4,27.2,30.5c1,36.7-28.8,54.9-50.6,52.5
			c-6.4-0.7-15.3-2.9-22.6-4.6s-13.3-3.1-13.8-5.3c0,0-3.8-24.2-4.8-30.1c-0.7-4.1,1.2-5.2,3.4-5.1c3.8,0,5,11.2,12.5,21.3
			c6,8,16.4,16,28.6,16c12.7,0,27-6.8,28.4-22.8c0.9-10.2-4.9-15.8-12.5-19.6c-11.8-5.8-26.2-6.9-42.4-19.8
			c-11.2-9.2-11-19.4-11.2-30.9c-0.4-19.8,22.4-38.6,42.8-38.6c13.9,0,26.8,8,32.8,8c1.6,0,6-4,7.6-4c3.4,0,2.7,3.9,2.7,6.6
			C533.1,25.8,532.9,48.4,532.9,54.5z"/>
		<path class="st0" d="M783,53.4c0.1,5.2,0.9,7.9-2.5,8.2c-3.7,0.3-7.1-20.2-25.4-31.5c-6.1-3.8-13.8-5.7-23.8-6.6
			c-9.7-0.9-46.2,4.6-47.8,61.9c-0.8,27.4,13.6,54.3,41.6,54.7c30,0.4,46.6-24.9,51.5-24.9c1.7,0,2.5-0.2,2.5,1.8
			c0,8.3-31.2,37.4-62.3,37.4c-34.2,0-67-22.4-63.5-63.4c1.2-13.7,5.3-32.6,15.9-46.7c14.1-18.9,37.7-28,57.5-28
			c27.2,0,39.4,10,44.3,10.7s6.5-11.2,10.9-7.5C783,20.5,782.8,48.5,783,53.4z"/>
		<path class="st0" d="M794.8,148.3c-0.2-0.8-0.5-1.5-0.9-2.2c-0.4-0.7-0.9-1.3-1.4-1.8c-0.5-0.5-1.2-1-1.8-1.4
			c-0.7-0.4-1.4-0.7-2.1-0.9c-0.8-0.2-1.6-0.3-2.4-0.3c-1.6,0-3.2,0.4-4.5,1.2c-0.7,0.4-1.3,0.9-1.8,1.4c-1.1,1.1-1.9,2.5-2.3,4
			c-0.4,1.6-0.4,3.2,0,4.8c0.6,2.3,2.1,4.2,4.1,5.4c0.7,0.4,1.4,0.7,2.1,0.9c0.8,0.2,1.6,0.3,2.4,0.3c0.8,0,1.6-0.1,2.4-0.3
			c0.7-0.2,1.5-0.5,2.1-0.9c0.7-0.4,1.3-0.9,1.8-1.4c0.5-0.5,1-1.2,1.4-1.8C795.1,153.1,795.4,150.6,794.8,148.3L794.8,148.3z
			 M793.6,152.8c-0.5,2-1.8,3.7-3.6,4.8c-1.2,0.7-2.6,1.1-4,1.1c-1.4,0-2.7-0.4-3.9-1.1c-0.6-0.3-1.1-0.8-1.6-1.2
			c-0.5-0.5-0.9-1-1.2-1.6c-0.7-1.2-1-2.6-1-4c0-2.1,0.8-4.2,2.2-5.7c2.2-2.3,5.6-3,8.5-1.7c0.9,0.4,1.8,1,2.5,1.7
			c1.5,1.5,2.3,3.6,2.3,5.7C793.9,151.4,793.8,152.1,793.6,152.8L793.6,152.8z"/>
		<path class="st0" d="M789.3,153.7c-0.2,0.1-0.4,0.2-0.6,0.3c-0.2,0.1-0.4,0.2-0.6,0.3c-0.2,0.1-0.5,0.2-0.8,0.2
			c-0.3,0.1-0.7,0.1-1.1,0.1c-0.5,0-1-0.1-1.4-0.3c-0.4-0.2-0.8-0.4-1.1-0.8c-0.3-0.4-0.6-0.8-0.7-1.3c-0.2-0.5-0.3-1.1-0.3-1.7
			c0-0.6,0.1-1.1,0.2-1.7c0.2-0.5,0.4-0.9,0.8-1.3c0.3-0.3,0.7-0.6,1.2-0.8c0.5-0.2,1-0.3,1.6-0.3c0.4,0,0.8,0,1.2,0.1
			c0.3,0.1,0.5,0.2,0.8,0.3c0.2,0.1,0.4,0.2,0.5,0.3c0.1,0.1,0.2,0.1,0.4,0.1c0.1,0,0.2,0,0.2-0.1c0.1,0,0.1-0.1,0.2-0.1l0.6-0.8
			c-1-1-2.4-1.6-3.9-1.5c-0.8,0-1.5,0.1-2.2,0.4c-0.7,0.3-1.3,0.7-1.8,1.2c-0.5,0.5-0.9,1.1-1.2,1.8c-0.3,0.7-0.4,1.5-0.4,2.3
			c0,0.8,0.1,1.6,0.4,2.3c0.2,0.7,0.6,1.3,1.1,1.8c0.5,0.5,1.1,0.9,1.7,1.2c0.7,0.3,1.4,0.4,2.2,0.4c0.8,0,1.7-0.1,2.4-0.4
			c0.7-0.3,1.2-0.7,1.7-1.3l-0.7-0.8C789.5,153.8,789.4,153.7,789.3,153.7z"/>
	</g>
</g>
</svg>
