<?xml version="1.0" encoding="utf-8"?>
<!-- Generator: Adobe Illustrator 25.0.0, SVG Export Plug-In . SVG Version: 6.00 Build 0)  -->
<svg version="1.1" id="Layer_1" xmlns="http://www.w3.org/2000/svg" xmlns:xlink="http://www.w3.org/1999/xlink" x="0px" y="0px"
	 viewBox="0 0 81 17" style="enable-background:new 0 0 81 17;" xml:space="preserve">
<style type="text/css">
	.st0{fill-rule:evenodd;clip-rule:evenodd;}
	.st1{fill-rule:evenodd;clip-rule:evenodd;fill:#FFFFFF;filter:url(#Adobe_OpacityMaskFilter);}
	.st2{mask:url(#mask0_81_969_1_);}
</style>
<g>
	<g>
		<path class="st0" d="M5.7,1.1H1.6H0.4v1.2v9.3v0.3v3.2v1.2h1.2h4.1h1.2V16H5.7H2.8v-4.1h1.9h1.2v-0.3H4.7H2.8V1.4h2.9h1.2V1.1H5.7
			z"/>
		<path class="st0" d="M10.1,1.1v1.2v12.8v1.2h1.2h3h1.2V16h-1.2h-1.8V2.3V1.1H10.1z"/>
		<path class="st0" d="M26.1,0.9L26,2.1l-1.2,13.2l-0.1-0.5l-2.4-13l-0.2-1h-2.5l0.1,1.2l0.3,13v1.2h0.2v-1.2L20.2,3.5l2.1,11.8
			l0.2,1h1.6l0,0h0.1l0.3,0h0.4l0-0.1l0-0.1l1.2-12.9v11.9v1.2h2.4v-1.2v-13V0.9H26.1z"/>
		<path class="st0" d="M34.4,0.9l0,0.1l-0.1,1.2l-1.8,12.8l-0.2,1.2h0.3l0.2-1.2l0.3-1.9h3.3l0.3,2.1l0.2,1h2.4L39,14.9l-2-13
			l-0.2-1H34.4z M34.7,2.4l1.6,10.5h-3.2L34.7,2.4z"/>
		<path class="st0" d="M46.7,16c0.7,0,1.2-0.8,1.4-2.4c0.1-0.8,0.2-2.4,0.2-4.8V8.2c0-4.5-0.5-6.8-1.5-6.8h0h-1.5v14.6L46.7,16z
			 M42.7,16.3v-1.2l0-12.8V1.1H44l2.8,0c0.4,0,0.8,0.1,1.1,0.2c0.3,0.1,0.7,0.4,1.1,0.7c0.4,0.3,0.7,0.8,0.9,1.3
			c0.3,0.6,0.5,1.3,0.6,2.3c0.2,0.9,0.3,2,0.3,3.3c0,5-1.3,7.5-4,7.5H44H42.7z"/>
		<path class="st0" d="M61.4,1.1v0.3h-1.2h-2.9v10.2h1.9h1.2v0.3h-1.2h-1.9V16h2.9h1.2v0.3h-1.2h-4.1H55v-1.2v-3.2v-0.3V2.2V1.1h1.2
			h4.1H61.4z"/>
		<path class="st0" d="M67.9,12.9L66.3,2.4l-1.6,10.5H67.9z M70.9,16.3h-2.4l-0.2-1L68,13.2h-3.3l-0.3,1.9l-0.2,1.2h-0.3l0.2-1.2
			L66,2.2L66.1,1l0-0.1h0.4h2l0.2,1l2,13L70.9,16.3z"/>
		<defs>
			<filter id="Adobe_OpacityMaskFilter" filterUnits="userSpaceOnUse" x="74.4" y="1.1" width="5.4" height="15.2">
				<feColorMatrix  type="matrix" values="1 0 0 0 0  0 1 0 0 0  0 0 1 0 0  0 0 0 1 0"/>
			</filter>
		</defs>
		<mask maskUnits="userSpaceOnUse" x="74.4" y="1.1" width="5.4" height="15.2" id="mask0_81_969_1_">
			<path class="st1" d="M74.4,1.1h5.4v15.2h-5.4V1.1z"/>
		</mask>
		<g class="st2">
			<path class="st0" d="M74.4,1.1h2.4v1.2V16h1.8h1.2v0.3h-1.2h-3h-1.2v-1.2V2.3V1.1z"/>
		</g>
	</g>
</g>
</svg>
