<?xml version="1.0" encoding="utf-8"?>
<!-- Generator: Adobe Illustrator 25.0.0, SVG Export Plug-In . SVG Version: 6.00 Build 0)  -->
<svg version="1.1" id="Layer_1" xmlns="http://www.w3.org/2000/svg" xmlns:xlink="http://www.w3.org/1999/xlink" x="0px" y="0px"
	 viewBox="0 0 806.7 169.3" style="enable-background:new 0 0 806.7 169.3;" xml:space="preserve">
<style type="text/css">
	.st0{fill-rule:evenodd;clip-rule:evenodd;}
</style>
<g>
	<g>
		<path class="st0" d="M53.9,8.7H12.3H0.2v12.2v94.4v3v32.5v12.2h12.2h41.6h12.2v-3H53.9H24.5v-41.6h19.3H56v-3H43.8H24.5V11.7h29.4
			h12.2v-3H53.9z"/>
		<path class="st0" d="M98.6,8.7v12.2v129.9v12.2h12.2h30.4h12.2v-3h-12.2h-18.3v-139V8.7H98.6z"/>
		<path class="st0" d="M260.9,6.6l-1,12.2l-12.2,133.9l-1-5.1L222.4,15.8l-2-10.1H195l1,12.2l3,131.9v12.2h2v-12.2l0-116.7
			l21.3,119.7l2,10.1h16.2l0,0h1h3h4.1v-1v-1L260.9,30v120.7v12.2h24.4v-12.2V18.8V6.6H260.9z"/>
		<path class="st0" d="M345.1,6.6v1l-1,12.2l-18.3,129.9l-2,12.2h3l2-12.2l3-19.3h33.5l3,21.3l2,10.1h24.4l-3-13.2L371.5,16.8
			l-2-10.1C369.5,6.6,345.1,6.6,345.1,6.6z M348.2,21.9l16.2,106.5h-32.5L348.2,21.9z"/>
		<path class="st0" d="M469.9,159.8c7.1,0,12.2-8.1,14.2-24.4c1-8.1,2-24.4,2-48.7v-6.1c0-45.7-5.1-69-15.2-69l0,0h-15.2v148.1
			H469.9z M429.3,162.9v-12.2V20.8V8.7h13.2h28.4c4.1,0,8.1,1,11.2,2s7.1,4.1,11.2,7.1c4.1,3,7.1,8.1,9.1,13.2
			c3,6.1,5.1,13.2,6.1,23.3c2,9.1,3,20.3,3,33.5c0,50.7-13.2,76.1-40.6,76.1h-28.4h-13.2V162.9z"/>
		<path class="st0" d="M619.1,8.7v3h-12.2h-29.4v103.5h19.3h12.2v3h-12.2h-19.3v41.6h29.4h12.2v3h-12.2h-41.6h-11.2v-12.2v-32.5v-3
			V19.8V8.7h12.2h41.6H619.1z"/>
		<path class="st0" d="M685,128.4L668.8,21.9l-16.2,106.5H685z M715.5,162.9h-24.4l-2-10.1l-3-21.3h-33.5l-3,19.3l-2,12.2h-3l2-12.2
			l19.3-130.9l1-12.2v-1h4.1h20.3l2,10.1l20.3,131.9L715.5,162.9z"/>
		<g>
			<path class="st0" d="M751,8.7h24.4v12.2v139h18.3h12.2v3h-12.2h-30.4H751v-12.2V20.8C751,20.8,751,8.7,751,8.7z"/>
		</g>
	</g>
</g>
</svg>
