<?xml version="1.0" encoding="utf-8"?>
<!-- Generator: Adobe Illustrator 25.0.0, SVG Export Plug-In . SVG Version: 6.00 Build 0)  -->
<svg version="1.1" id="Layer_1" xmlns="http://www.w3.org/2000/svg" xmlns:xlink="http://www.w3.org/1999/xlink" x="0px" y="0px"
	 viewBox="0 0 183.3 169.3" style="enable-background:new 0 0 183.3 169.3;" xml:space="preserve">
<style type="text/css">
	.st0{clip-path:url(#SVGID_2_);}
	.st1{opacity:0.5;fill:#3D3E5A;enable-background:new    ;}
</style>
<g>
	<defs>
		<rect id="SVGID_1_" x="0" width="183.2" height="169.3"/>
	</defs>
	<clipPath id="SVGID_2_">
		<use xlink:href="#SVGID_1_"  style="overflow:visible;"/>
	</clipPath>
	<g class="st0">
		<path class="st1" d="M95.7,0C95.7,0,95.7,0,95.7,0c-2.2,6.3-5.6,12-10,16.9c-4.8,5.3-10.6,9.6-17.1,12.5
			c-6.5,2.9-13.6,4.4-20.7,4.4H0C3.5,24,10,15.4,18.6,9.3C27.1,3.3,37.4,0,47.8,0H95.7z"/>
		<path class="st1" d="M95.7,135.5c-3.5,9.9-10,18.5-18.5,24.5c-8.6,6.1-18.8,9.3-29.3,9.3H0c3.5-9.9,10-18.5,18.5-24.6
			c8.6-6.1,18.8-9.3,29.3-9.3H95.7z"/>
		<path class="st1" d="M115.5,84.7c0,2.2-0.4,4.4-1.3,6.5c-0.9,2.1-2.1,3.9-3.7,5.5c-1.6,1.6-3.4,2.8-5.5,3.7
			c-2.1,0.8-4.3,1.3-6.5,1.3H0c2.2-6.2,5.6-12,10-16.9c1.3-1.4,2.6-2.8,4.1-4.1c9.3-8.3,21.3-12.9,33.8-12.9h50.7
			c4.5,0,8.8,1.8,12,5C113.7,75.9,115.5,80.2,115.5,84.7z"/>
		<path d="M183.2,84.7c0,21.9-8.5,43-23.7,58.8c-15.2,15.8-36,25-57.9,25.8H47.8c10.5,0,20.7-3.3,29.3-9.3
			c8.6-6.1,15-14.6,18.5-24.5h2.9c13.5,0,26.4-5.4,35.9-14.9c9.5-9.5,14.9-22.4,14.9-35.9c0-13.5-5.3-26.4-14.9-35.9
			c-9.5-9.5-22.4-14.9-35.9-14.9H47.8c7.1,0,14.2-1.5,20.7-4.4s12.3-7.2,17.1-12.5c4.4-4.9,7.8-10.6,10-16.8c0,0,0,0,0-0.1h2.9
			c11.1,0,22.1,2.2,32.4,6.4c10.3,4.3,19.6,10.5,27.5,18.4s14.1,17.2,18.3,27.5C181,62.5,183.2,73.6,183.2,84.7z"/>
	</g>
</g>
</svg>
