<svg width="197" height="182" viewBox="0 0 197 182" fill="none" xmlns="http://www.w3.org/2000/svg">
<g clip-path="url(#clip0_447_1018)">
<path opacity="0.5" d="M102.857 0C102.857 0 102.857 0.0470365 102.857 0.0627154C100.487 6.75433 96.8322 12.917 92.0979 18.2031C86.9894 23.935 80.727 28.5196 73.7223 31.6556C66.7177 34.7916 59.1293 36.4079 51.4561 36.3984H0C3.76856 25.7568 10.7362 16.5444 19.9456 10.027C29.1551 3.50954 40.1544 0.00680331 51.4326 0L102.857 0Z" fill="#3D3E5A"/>
<path opacity="0.5" d="M102.857 145.602C99.1021 156.25 92.1389 165.47 82.9282 171.99C73.7174 178.509 62.713 182.007 51.4326 182H0C3.75272 171.348 10.7164 162.126 19.9294 155.606C29.1423 149.086 40.1501 145.59 51.4326 145.602H102.857Z" fill="#3D3E5A"/>
<path opacity="0.5" d="M124.149 91C124.149 93.3901 123.679 95.7568 122.765 97.9649C121.851 100.173 120.512 102.179 118.823 103.869C117.135 105.559 115.13 106.899 112.924 107.813C110.718 108.726 108.354 109.196 105.966 109.195H0C2.36855 102.481 6.03234 96.2991 10.783 91C12.1516 89.4641 13.608 88.0087 15.1447 86.6413C25.1239 77.7086 38.046 72.7786 51.4326 72.7969H105.966C110.789 72.7969 115.414 74.7147 118.824 78.1285C122.234 81.5422 124.149 86.1723 124.149 91Z" fill="#3D3E5A"/>
<path d="M196.905 91.0314C196.901 114.611 187.756 137.268 171.396 154.231C155.036 171.194 132.738 181.138 109.2 181.969H51.4321C62.7098 181.964 73.709 178.462 82.9176 171.944C92.1261 165.426 99.0918 156.213 102.857 145.57H105.989C120.455 145.57 134.327 139.818 144.556 129.578C154.784 119.338 160.531 105.45 160.531 90.9687C160.531 76.4875 154.784 62.5993 144.556 52.3596C134.327 42.1198 120.455 36.3671 105.989 36.3671H51.4321C59.1053 36.3766 66.6937 34.7603 73.6984 31.6243C80.7031 28.4883 86.9655 23.9037 92.0739 18.1718C96.8048 12.8949 100.46 6.74327 102.833 0.0627725C102.833 0.0627725 102.833 0.0627725 102.833 5.7166e-05H105.966C117.911 -0.0133511 129.742 2.33204 140.781 6.90194C151.819 11.4719 161.849 18.1765 170.296 26.6321C178.743 35.0877 185.442 45.1282 190.007 56.1788C194.573 67.2293 196.917 79.0729 196.905 91.0314Z" fill="black"/>
</g>
<defs>
<clipPath id="clip0_447_1018">
<rect width="196.905" height="182" fill="white"/>
</clipPath>
</defs>
</svg>
