<?xml version="1.0" encoding="utf-8"?>
<!-- Generator: Adobe Illustrator 25.0.0, SVG Export Plug-In . SVG Version: 6.00 Build 0)  -->
<svg version="1.1" id="Layer_1" xmlns="http://www.w3.org/2000/svg" xmlns:xlink="http://www.w3.org/1999/xlink" x="0px" y="0px"
	 viewBox="0 0 808.9 169.3" style="enable-background:new 0 0 808.9 169.3;" xml:space="preserve">
<path d="M-0.2,153.5V17.6h29.1L71.6,103l42.7-85.4h29.1v135.9h-23.3V60.3l-38.8,73.8H61.9L25.1,60.3v93.2H-0.2z M217.2,155.5
	c-9.7,0-17.5-1.9-25.2-5.8c-7.8-3.9-13.6-9.7-17.5-17.5c-5.8-7.8-7.8-17.5-7.8-27.2s1.9-19.4,5.8-25.2c3.9-7.8,9.7-13.6,17.5-17.5
	c9.7-5.8,17.5-7.8,27.2-7.8s17.5,1.9,25.2,5.8c7.8,3.9,13.6,9.7,17.5,17.5s5.8,15.5,5.8,25.2s-1.9,19.4-5.8,27.2
	s-9.7,13.6-17.5,17.5C234.7,153.5,225,155.5,217.2,155.5z M217.2,134.1c5.8,0,11.6-1.9,17.5-7.8c3.9-3.9,5.8-11.6,5.8-21.4
	s-1.9-15.5-7.8-21.4c-3.9-3.9-9.7-7.8-15.5-7.8s-11.6,1.9-17.5,7.8c-3.9,3.9-7.8,11.6-7.8,21.4s1.9,17.5,7.8,21.4
	C203.6,132.2,209.5,134.1,217.2,134.1z M287.1,153.5v-97h21.4l3.9,19.4c3.9-5.8,7.8-11.6,13.6-15.5c5.8-3.9,13.6-5.8,21.4-5.8v25.2
	h-7.8c-5.8,0-9.7,0-15.5,1.9c-5.8,1.9-5.8,5.8-7.8,9.7c-1.9,3.9-3.9,9.7-3.9,17.5v44.6H287.1z M409.4,155.5
	c-9.7,0-17.5-1.9-25.2-5.8s-13.6-9.7-17.5-17.5c-3.9-7.8-5.8-15.5-5.8-25.2c0-9.7,1.9-19.4,5.8-27.2c3.9-7.8,9.7-13.6,17.5-17.5
	s15.5-5.8,27.2-5.8c9.7,0,17.5,1.9,25.2,5.8S450.1,72,454,79.8c3.9,7.8,5.8,15.5,5.8,23.3c0,1.9,0,3.9,0,3.9c0,1.9,0,3.9,0,3.9
	h-73.8c0,7.8,3.9,13.6,7.8,17.5c3.9,3.9,9.7,5.8,17.5,5.8c5.8,0,9.7-1.9,11.6-3.9c3.9-1.9,5.8-5.8,7.8-9.7H456
	c-1.9,5.8-3.9,11.6-9.7,17.5c-3.9,5.8-9.7,9.7-15.5,11.6C424.9,153.5,417.1,155.5,409.4,155.5z M409.4,75.9
	c-5.8,0-11.6,1.9-15.5,5.8c-3.9,3.9-7.8,7.8-9.7,15.5h48.5c0-5.8-1.9-11.6-7.8-15.5C419.1,77.8,417.1,75.9,409.4,75.9z M523.9,155.5
	c-9.7,0-17.5-1.9-23.3-5.8c-7.8-3.9-13.6-9.7-17.5-17.5c-3.9-7.8-5.8-15.5-5.8-25.2s1.9-17.5,5.8-25.2c3.9-7.8,9.7-13.6,17.5-17.5
	s15.5-5.8,23.3-5.8c7.8,0,13.6,1.9,19.4,3.9c5.8,1.9,9.7,5.8,13.6,11.6V13.8h25.2v139.8h-21.4l-1.9-13.6c-3.9,3.9-7.8,7.8-11.6,11.6
	C537.5,153.5,531.7,155.5,523.9,155.5z M527.8,134.1c7.8,0,15.5-1.9,19.4-7.8c5.8-5.8,7.8-11.6,7.8-21.4s-1.9-15.5-5.8-19.4
	c-5.8-5.8-11.6-7.8-19.4-7.8s-13.6,1.9-19.4,7.8c-5.8,5.8-7.8,11.6-7.8,21.4c0,7.8,1.9,15.5,7.8,21.4
	C514.2,132.2,520,134.1,527.8,134.1z M652,155.5c-9.7,0-17.5-1.9-25.2-5.8c-7.8-3.9-13.6-9.7-17.5-17.5c-3.9-7.8-5.8-15.5-5.8-25.2
	c0-9.7,1.9-19.4,5.8-27.2c3.9-7.8,9.7-13.6,17.5-17.5s15.5-5.8,27.2-5.8c9.7,0,17.5,1.9,25.2,5.8c7.8,3.9,13.6,9.7,17.5,17.5
	c3.9,7.8,5.8,15.5,5.8,23.3c0,1.9,0,3.9,0,3.9c0,1.9,0,3.9,0,3.9h-75.7c0,7.8,3.9,13.6,7.8,17.5c5.8,5.8,11.6,7.8,17.5,7.8
	s9.7-1.9,13.6-3.9c3.9-1.9,5.8-5.8,7.8-9.7h25.2c-1.9,5.8-3.9,11.6-9.7,17.5c-3.9,5.8-9.7,9.7-15.5,11.6
	C667.5,153.5,659.8,155.5,652,155.5z M652,75.9c-5.8,0-11.6,1.9-15.5,5.8c-3.9,1.9-7.8,7.8-9.7,13.6h48.5c0-5.8-1.9-11.6-7.8-15.5
	S659.8,75.9,652,75.9z M743.2,153.5l-34.9-97h25.2l25.2,73.8L784,56.5h25.2l-34.9,97H743.2z"/>
</svg>
