<?xml version="1.0" encoding="utf-8"?>
<!-- Generator: Adobe Illustrator 25.0.0, SVG Export Plug-In . SVG Version: 6.00 Build 0)  -->
<svg version="1.1" id="Layer_1" xmlns="http://www.w3.org/2000/svg" xmlns:xlink="http://www.w3.org/1999/xlink" x="0px" y="0px"
	 viewBox="0 0 43 9" style="enable-background:new 0 0 43 9;" xml:space="preserve">
<path d="M0.7,8V1h1.5l2.2,4.4L6.6,1h1.5v7H6.9V3.2L4.9,7h-1L2,3.2V8H0.7z M11.9,8.1c-0.5,0-0.9-0.1-1.3-0.3
	c-0.4-0.2-0.7-0.5-0.9-0.9C9.4,6.5,9.3,6,9.3,5.5s0.1-1,0.3-1.3c0.2-0.4,0.5-0.7,0.9-0.9C11,3,11.4,2.9,11.9,2.9
	c0.5,0,0.9,0.1,1.3,0.3c0.4,0.2,0.7,0.5,0.9,0.9c0.2,0.4,0.3,0.8,0.3,1.3s-0.1,1-0.3,1.4c-0.2,0.4-0.5,0.7-0.9,0.9
	C12.8,8,12.3,8.1,11.9,8.1z M11.9,7c0.3,0,0.6-0.1,0.9-0.4C13,6.4,13.1,6,13.1,5.5S13,4.7,12.7,4.4C12.5,4.2,12.2,4,11.9,4
	c-0.3,0-0.6,0.1-0.9,0.4c-0.2,0.2-0.4,0.6-0.4,1.1s0.1,0.9,0.4,1.1C11.2,6.9,11.5,7,11.9,7z M15.5,8V3h1.1L16.8,4
	c0.2-0.3,0.4-0.6,0.7-0.8c0.3-0.2,0.7-0.3,1.1-0.3v1.3h-0.4c-0.3,0-0.5,0-0.8,0.1S17.1,4.6,17,4.8c-0.1,0.2-0.2,0.5-0.2,0.9V8H15.5z
	 M21.8,8.1c-0.5,0-0.9-0.1-1.3-0.3c-0.4-0.2-0.7-0.5-0.9-0.9c-0.2-0.4-0.3-0.8-0.3-1.3c0-0.5,0.1-1,0.3-1.4c0.2-0.4,0.5-0.7,0.9-0.9
	c0.4-0.2,0.8-0.3,1.4-0.3c0.5,0,0.9,0.1,1.3,0.3c0.4,0.2,0.7,0.5,0.9,0.9c0.2,0.4,0.3,0.8,0.3,1.2c0,0.1,0,0.2,0,0.2
	c0,0.1,0,0.2,0,0.2h-3.8c0,0.4,0.2,0.7,0.4,0.9c0.2,0.2,0.5,0.3,0.9,0.3c0.3,0,0.5-0.1,0.6-0.2c0.2-0.1,0.3-0.3,0.4-0.5h1.3
	c-0.1,0.3-0.2,0.6-0.5,0.9c-0.2,0.3-0.5,0.5-0.8,0.6C22.6,8,22.2,8.1,21.8,8.1z M21.8,4c-0.3,0-0.6,0.1-0.8,0.3
	c-0.2,0.2-0.4,0.4-0.5,0.8H23c0-0.3-0.1-0.6-0.4-0.8S22.2,4,21.8,4z M27.7,8.1c-0.5,0-0.9-0.1-1.2-0.3c-0.4-0.2-0.7-0.5-0.9-0.9
	c-0.2-0.4-0.3-0.8-0.3-1.3s0.1-0.9,0.3-1.3c0.2-0.4,0.5-0.7,0.9-0.9c0.4-0.2,0.8-0.3,1.2-0.3c0.4,0,0.7,0.1,1,0.2
	c0.3,0.1,0.5,0.3,0.7,0.6V0.8h1.3V8h-1.1l-0.1-0.7c-0.2,0.2-0.4,0.4-0.6,0.6C28.4,8,28.1,8.1,27.7,8.1z M27.9,7c0.4,0,0.8-0.1,1-0.4
	c0.3-0.3,0.4-0.6,0.4-1.1S29.2,4.7,29,4.5c-0.3-0.3-0.6-0.4-1-0.4c-0.4,0-0.7,0.1-1,0.4c-0.3,0.3-0.4,0.6-0.4,1.1
	c0,0.4,0.1,0.8,0.4,1.1C27.2,6.9,27.5,7,27.9,7z M34.3,8.1c-0.5,0-0.9-0.1-1.3-0.3c-0.4-0.2-0.7-0.5-0.9-0.9s-0.3-0.8-0.3-1.3
	c0-0.5,0.1-1,0.3-1.4c0.2-0.4,0.5-0.7,0.9-0.9c0.4-0.2,0.8-0.3,1.4-0.3c0.5,0,0.9,0.1,1.3,0.3c0.4,0.2,0.7,0.5,0.9,0.9
	c0.2,0.4,0.3,0.8,0.3,1.2c0,0.1,0,0.2,0,0.2c0,0.1,0,0.2,0,0.2H33c0,0.4,0.2,0.7,0.4,0.9C33.7,7,34,7.1,34.3,7.1
	c0.3,0,0.5-0.1,0.7-0.2c0.2-0.1,0.3-0.3,0.4-0.5h1.3c-0.1,0.3-0.2,0.6-0.5,0.9c-0.2,0.3-0.5,0.5-0.8,0.6C35.1,8,34.7,8.1,34.3,8.1z
	 M34.3,4c-0.3,0-0.6,0.1-0.8,0.3C33.3,4.4,33.1,4.7,33,5h2.5c0-0.3-0.1-0.6-0.4-0.8S34.7,4,34.3,4z M39,8l-1.8-5h1.3l1.3,3.8L41.1,3
	h1.3l-1.8,5H39z"/>
</svg>
